<svg xmlns="http://www.w3.org/2000/svg" width="1000" height="1000" viewBox="0 0 1000 1000">
  <metadata><?xpacket begin="﻿" id="W5M0MpCehiHzreSzNTczkc9d"?>
<x:xmpmeta xmlns:x="adobe:ns:meta/" x:xmptk="Adobe XMP Core 5.6-c138 79.159824, 2016/09/14-01:09:01        ">
   <rdf:RDF xmlns:rdf="http://www.w3.org/1999/02/22-rdf-syntax-ns#">
      <rdf:Description rdf:about=""/>
   </rdf:RDF>
</x:xmpmeta>
                                                                                                    
                                                                                                    
                                                                                                    
                                                                                                    
                                                                                                    
                                                                                                    
                                                                                                    
                                                                                                    
                                                                                                    
                                                                                                    
                                                                                                    
                                                                                                    
                                                                                                    
                                                                                                    
                                                                                                    
                                                                                                    
                                                                                                    
                                                                                                    
                                                                                                    
                                                                                                    
                           
<?xpacket end="w"?></metadata>
<defs>
    <style>
      .cls-1 {
        fill: #c8bfe7;
      }

      .cls-1, .cls-2 {
        fill-rule: evenodd;
      }

      .cls-2 {
        fill: #efe4b0;
      }
    </style>
  </defs>
  <path id="Фигура_4" data-name="Фигура 4" class="cls-1" d="M387.93,630.248l-0.381-30,176.726-2.242,0.381,30Z"/>
  <path id="Фигура_4_копия" data-name="Фигура 4 копия" class="cls-1" d="M428.834,609.636l-0.381-30L605.179,577.4l0.381,30Z"/>
  <path id="Прямоугольник_1" data-name="Прямоугольник 1" class="cls-1" d="M462.726,412.759l167.729,27.692-27.692,167.73L435.034,580.489Z"/>
  <path id="Прямоугольник_2" data-name="Прямоугольник 2" class="cls-1" d="M469.251,379.376L636.98,407.068l-6.516,39.466L462.735,418.842Z"/>
  <path id="Прямоугольник_3" data-name="Прямоугольник 3" class="cls-1" d="M590.091,384.124l50.319,8.308-4.724,28.612-50.319-8.307Z"/>
  <path id="Многоугольник_1" data-name="Многоугольник 1" class="cls-2" d="M479.772,547.011l21.065-126.949,99.409,81.717Z"/>
  <path id="Фигура_3" data-name="Фигура 3" class="cls-2" d="M647.306,375.417l-180.474,2.41-0.01.065L433.865,577.507c-3.95-5.174-11.529-7.754-20.623-9.255-10.391-1.716-23.716,1.4-34.915,7.8-11.153,6.136-20.181,15.55-21.934,26.164a20.514,20.514,0,0,0,5.1,17.6c4.036,4.655,10.406,8.1,17.681,9.3,11.432,1.887,25.192-.628,36.345-6.765,11.415-6.1,20.182-15.552,22.105-27.2l31.851-192.917L636.642,400,607.72,575.182c-3.95-5.174-11.532-7.755-20.623-9.256-10.394-1.716-23.718,1.4-34.915,7.8-11.156,6.136-20.184,15.55-21.936,26.165a20.509,20.509,0,0,0,5.1,17.6c4.036,4.655,10.406,8.1,17.679,9.3,11.432,1.888,25.192-.628,36.348-6.764,11.413-6.1,20.181-15.552,22.1-27.2Z"/>
</svg>
