<svg xmlns="http://www.w3.org/2000/svg" width="100" height="100" viewBox="0 0 1000 1000">
  <metadata><?xpacket begin="﻿" id="W5M0MpCehiHzreSzNTczkc9d"?>
<x:xmpmeta xmlns:x="adobe:ns:meta/" x:xmptk="Adobe XMP Core 5.6-c138 79.159824, 2016/09/14-01:09:01        ">
   <rdf:RDF xmlns:rdf="http://www.w3.org/1999/02/22-rdf-syntax-ns#">
      <rdf:Description rdf:about=""/>
   </rdf:RDF>
</x:xmpmeta>
                                                                                                    
                                                                                                    
                                                                                                    
                                                                                                    
                                                                                                    
                                                                                                    
                                                                                                    
                                                                                                    
                                                                                                    
                                                                                                    
                                                                                                    
                                                                                                    
                                                                                                    
                                                                                                    
                                                                                                    
                                                                                                    
                                                                                                    
                                                                                                    
                                                                                                    
                                                                                                    
                           
<?xpacket end="w"?></metadata>
<defs>
    <style>
      .cls-1 {
        fill: #c8bfe7;
      }

      .cls-1, .cls-2 {
        fill-rule: evenodd;
      }

      .cls-2 {
        fill: #efe4b0;
      }
    </style>
  </defs>
  <path id="Фигура_4_копия" data-name="Фигура 4 копия" class="cls-1" d="M214.048,847.545L214.6,746.08l598.412,3.271L812.46,850.815Z"/>
  <path id="Фигура_4" data-name="Фигура 4" class="cls-1" d="M694,922.5l-0.006,1-587-3,0.006-1Z"/>
  <path id="Фигура_5" data-name="Фигура 5" class="cls-1" d="M107.012,920.436L107.124,902l586.866,4.1L693.9,923Z"/>
  <path id="Фигура_5_копия" data-name="Фигура 5 копия" class="cls-1" d="M108.949,906l0.1-20,587,3-0.1,20Z"/>
  <path id="Фигура_5_копия_2" data-name="Фигура 5 копия 2" class="cls-1" d="M111.949,890l0.1-20,587,3-0.1,20Z"/>
  <path id="Фигура_5_копия_3" data-name="Фигура 5 копия 3" class="cls-1" d="M112.949,877l0.1-20,587,3-0.1,20Z"/>
  <path id="Фигура_5_копия_4" data-name="Фигура 5 копия 4" class="cls-1" d="M113.949,864l0.1-20,587,3-0.1,20Z"/>
  <path id="Прямоугольник_1" data-name="Прямоугольник 1" class="cls-1" d="M372.887,191.859L939,295.805l-104.058,565.5L268.828,757.361Z"/>
  <path id="Прямоугольник_2" data-name="Прямоугольник 2" class="cls-1" d="M397.029,79.37L963.145,183.316,938.661,316.375,372.544,212.429Z"/>
  <path id="Прямоугольник_3" data-name="Прямоугольник 3" class="cls-1" d="M805.822,102.846L975.657,134.03,957.906,230.5,788.071,199.314Z"/>
  <path id="Фигура_3" data-name="Фигура 3" class="cls-2" d="M1000.05,76.914L388.937,73.981l-0.04.22L265.056,747.206C252,729.467,226.5,720.276,195.809,714.641c-35.073-6.44-80.374,3.292-118.677,24.232C39,758.939,7.854,790.219,1.269,826.006c-4.176,22.7,1.938,43.677,16.183,59.827,13.376,15.99,34.729,28.032,59.285,32.541,38.585,7.084,85.32-.577,123.455-20.645,39.016-19.911,69.278-51.352,76.505-90.628L396.382,156.679,962.436,159.4,853.755,750.02c-13.055-17.739-38.563-26.932-69.247-32.566-35.081-6.441-80.381,3.292-118.678,24.233-38.144,20.065-69.285,51.345-75.87,87.132-4.176,22.7,1.938,43.676,16.191,59.828,13.376,15.99,34.73,28.032,59.277,32.539,38.585,7.085,85.32-.577,123.464-20.643,39.014-19.911,69.277-51.353,76.5-90.628Z"/>
  <path id="Многоугольник_1" data-name="Многоугольник 1" class="cls-2" d="M435.232,671.346L513.37,243.175,845.511,525Z"/>
</svg>
