<svg width="1000.0000000000001" height="1000.0000000000001" xmlns="http://www.w3.org/2000/svg">
 <metadata>Svg Vector Icons : http://www.onlinewebfonts.com/icon</metadata>

 <g>
  <title>background</title>
  <rect fill="none" id="canvas_background" height="402" width="582" y="-1" x="-1"/>
 </g>
 <g>
  <title>Layer 1</title>
  <g transform="rotate(-89.91864776611328 500,500) " id="svg_1">
   <path id="svg_2" d="m138.9,371c-71.2,0 -128.9,57.8 -128.9,129c0,71.2 57.7,129 128.9,129c71.2,0 128.9,-57.7 128.9,-129c0.1,-71.2 -57.6,-129 -128.9,-129zm361.1,0c-71.2,0 -129,57.7 -129,128.9c0,71.2 57.7,129 129,129c71.2,0 128.9,-57.7 128.9,-129c0,-71.1 -57.7,-128.9 -128.9,-128.9zm361.1,0c-71.2,0 -128.9,57.7 -128.9,128.9c0,71.2 57.7,129 128.9,129c71.2,0 128.9,-57.7 128.9,-129c0,-71.1 -57.7,-128.9 -128.9,-128.9z"/>
  </g>
 </g>
</svg>